<svg width="415" height="30" viewBox="0 0 415 30" fill="none" xmlns="http://www.w3.org/2000/svg">
<path d="M8.21875 2.3125C12.125 2.3125 15.0625 3.25521 17.0312 5.14062C19.0104 7.02604 20 9.82812 20 13.5469C20 17.2969 19 20.1458 17 22.0938C15.0104 24.0312 12.0833 25 8.21875 25H0.609375V2.3125H8.21875ZM8.54688 21.3594C10.6615 21.3594 12.2604 20.7083 13.3438 19.4062C14.4271 18.1042 14.9688 16.1719 14.9688 13.6094C14.9688 11.0885 14.4323 9.1875 13.3594 7.90625C12.2865 6.625 10.6823 5.98438 8.54688 5.98438H5.4375V21.3594H8.54688ZM29.8125 7.90625C32.1771 7.90625 33.9896 8.48958 35.25 9.65625C36.5104 10.8229 37.1406 12.5156 37.1406 14.7344V25H33.1719L32.625 23.0156C31.9375 23.7448 31.1615 24.3021 30.2969 24.6875C29.4427 25.0625 28.526 25.25 27.5469 25.25C25.8177 25.25 24.4427 24.8021 23.4219 23.9062C22.4115 23.0104 21.9062 21.8073 21.9062 20.2969C21.9062 18.5469 22.6406 17.1823 24.1094 16.2031C25.5885 15.224 27.651 14.7344 30.2969 14.7344H32.3438V14.3125C32.2812 12.375 31.1823 11.4062 29.0469 11.4062C28.3177 11.4062 27.474 11.5156 26.5156 11.7344C25.5573 11.9427 24.6927 12.2135 23.9219 12.5469L22.9062 9.3125C24.0104 8.86458 25.1719 8.52083 26.3906 8.28125C27.6094 8.03125 28.75 7.90625 29.8125 7.90625ZM30.7031 17.3594C29.3385 17.3594 28.276 17.5938 27.5156 18.0625C26.7656 18.5312 26.3906 19.1823 26.3906 20.0156C26.3906 20.7031 26.599 21.2292 27.0156 21.5938C27.4323 21.9479 28.0208 22.125 28.7812 22.125C29.4688 22.125 30.125 21.974 30.75 21.6719C31.3854 21.3698 31.9167 20.9635 32.3438 20.4531V17.3594H30.7031ZM51.6875 24.3594C50.2396 24.9531 48.8542 25.25 47.5312 25.25C43.8438 25.25 42 23.4896 42 19.9688V11.5938H39.2344V8.23438H42.3125L43.2344 3.4375H46.7656V8.23438H51.3438V11.5938H46.7656V19.2969C46.7656 20.151 46.9219 20.7604 47.2344 21.125C47.5573 21.4896 48.1042 21.6719 48.875 21.6719C49.5312 21.6719 50.2344 21.5417 50.9844 21.2812L51.6875 24.3594ZM60.9375 7.90625C63.3021 7.90625 65.1146 8.48958 66.375 9.65625C67.6354 10.8229 68.2656 12.5156 68.2656 14.7344V25H64.2969L63.75 23.0156C63.0625 23.7448 62.2865 24.3021 61.4219 24.6875C60.5677 25.0625 59.651 25.25 58.6719 25.25C56.9427 25.25 55.5677 24.8021 54.5469 23.9062C53.5365 23.0104 53.0312 21.8073 53.0312 20.2969C53.0312 18.5469 53.7656 17.1823 55.2344 16.2031C56.7135 15.224 58.776 14.7344 61.4219 14.7344H63.4688V14.3125C63.4062 12.375 62.3073 11.4062 60.1719 11.4062C59.4427 11.4062 58.599 11.5156 57.6406 11.7344C56.6823 11.9427 55.8177 12.2135 55.0469 12.5469L54.0312 9.3125C55.1354 8.86458 56.2969 8.52083 57.5156 8.28125C58.7344 8.03125 59.875 7.90625 60.9375 7.90625ZM61.8281 17.3594C60.4635 17.3594 59.401 17.5938 58.6406 18.0625C57.8906 18.5312 57.5156 19.1823 57.5156 20.0156C57.5156 20.7031 57.724 21.2292 58.1406 21.5938C58.5573 21.9479 59.1458 22.125 59.9062 22.125C60.5938 22.125 61.25 21.974 61.875 21.6719C62.5104 21.3698 63.0417 20.9635 63.4688 20.4531V17.3594H61.8281ZM77.2344 2.3125H82.2344L85.7188 12.9688C86.2292 14.5521 86.8802 16.8854 87.6719 19.9688L87.8594 20.7812C88.6719 17.4062 89.375 14.8021 89.9688 12.9688L93.5 2.3125H98.4844L90.875 25H84.8594L77.2344 2.3125ZM101.016 1.48438H105.812V5.85938H101.016V1.48438ZM101.016 8.42188H105.812V25H101.016V8.42188ZM116.328 7.90625C117.911 7.90625 119.76 8.27083 121.875 9L120.875 12.1406C119.771 11.776 118.891 11.526 118.234 11.3906C117.589 11.2448 117.01 11.1719 116.5 11.1719C115.708 11.1719 115.083 11.3229 114.625 11.625C114.167 11.9271 113.938 12.3333 113.938 12.8438C113.938 13.3333 114.156 13.7188 114.594 14C115.031 14.2708 115.688 14.5365 116.562 14.7969C117.781 15.1406 118.745 15.4635 119.453 15.7656C120.172 16.0573 120.807 16.5521 121.359 17.25C121.911 17.9375 122.188 18.8802 122.188 20.0781C122.188 21.724 121.573 23.0104 120.344 23.9375C119.125 24.8542 117.448 25.3125 115.312 25.3125C113.073 25.3125 110.927 24.8646 108.875 23.9688L110.031 20.8125C111.25 21.2604 112.234 21.5781 112.984 21.7656C113.745 21.9427 114.422 22.0312 115.016 22.0312C115.849 22.0312 116.479 21.875 116.906 21.5625C117.333 21.25 117.547 20.8073 117.547 20.2344C117.547 19.6615 117.302 19.2396 116.812 18.9688C116.323 18.6979 115.531 18.4062 114.438 18.0938C113.417 17.7917 112.562 17.4844 111.875 17.1719C111.198 16.849 110.615 16.3438 110.125 15.6562C109.635 14.9688 109.391 14.0625 109.391 12.9375C109.391 11.3542 110 10.1198 111.219 9.23438C112.448 8.34896 114.151 7.90625 116.328 7.90625ZM129.922 19.1094C129.922 20.0677 130.115 20.7656 130.5 21.2031C130.885 21.6406 131.505 21.8594 132.359 21.8594C133.109 21.8594 133.818 21.6927 134.484 21.3594C135.161 21.0156 135.698 20.5417 136.094 19.9375V8.23438H140.906V25H136.938L136.391 22.6562C135.682 23.5104 134.849 24.1562 133.891 24.5938C132.932 25.0312 131.875 25.25 130.719 25.25C128.906 25.25 127.521 24.7448 126.562 23.7344C125.604 22.724 125.125 21.2708 125.125 19.375V8.23438H129.922V19.1094ZM151.875 7.90625C154.24 7.90625 156.052 8.48958 157.312 9.65625C158.573 10.8229 159.203 12.5156 159.203 14.7344V25H155.234L154.688 23.0156C154 23.7448 153.224 24.3021 152.359 24.6875C151.505 25.0625 150.589 25.25 149.609 25.25C147.88 25.25 146.505 24.8021 145.484 23.9062C144.474 23.0104 143.969 21.8073 143.969 20.2969C143.969 18.5469 144.703 17.1823 146.172 16.2031C147.651 15.224 149.714 14.7344 152.359 14.7344H154.406V14.3125C154.344 12.375 153.245 11.4062 151.109 11.4062C150.38 11.4062 149.536 11.5156 148.578 11.7344C147.62 11.9427 146.755 12.2135 145.984 12.5469L144.969 9.3125C146.073 8.86458 147.234 8.52083 148.453 8.28125C149.672 8.03125 150.812 7.90625 151.875 7.90625ZM152.766 17.3594C151.401 17.3594 150.339 17.5938 149.578 18.0625C148.828 18.5312 148.453 19.1823 148.453 20.0156C148.453 20.7031 148.661 21.2292 149.078 21.5938C149.495 21.9479 150.083 22.125 150.844 22.125C151.531 22.125 152.188 21.974 152.812 21.6719C153.448 21.3698 153.979 20.9635 154.406 20.4531V17.3594H152.766ZM163.391 0.9375H168.188V25H163.391V0.9375ZM172.891 1.48438H177.688V5.85938H172.891V1.48438ZM172.891 8.42188H177.688V25H172.891V8.42188ZM188.203 7.90625C189.786 7.90625 191.635 8.27083 193.75 9L192.75 12.1406C191.646 11.776 190.766 11.526 190.109 11.3906C189.464 11.2448 188.885 11.1719 188.375 11.1719C187.583 11.1719 186.958 11.3229 186.5 11.625C186.042 11.9271 185.812 12.3333 185.812 12.8438C185.812 13.3333 186.031 13.7188 186.469 14C186.906 14.2708 187.562 14.5365 188.438 14.7969C189.656 15.1406 190.62 15.4635 191.328 15.7656C192.047 16.0573 192.682 16.5521 193.234 17.25C193.786 17.9375 194.062 18.8802 194.062 20.0781C194.062 21.724 193.448 23.0104 192.219 23.9375C191 24.8542 189.323 25.3125 187.188 25.3125C184.948 25.3125 182.802 24.8646 180.75 23.9688L181.906 20.8125C183.125 21.2604 184.109 21.5781 184.859 21.7656C185.62 21.9427 186.297 22.0312 186.891 22.0312C187.724 22.0312 188.354 21.875 188.781 21.5625C189.208 21.25 189.422 20.8073 189.422 20.2344C189.422 19.6615 189.177 19.2396 188.688 18.9688C188.198 18.6979 187.406 18.4062 186.312 18.0938C185.292 17.7917 184.438 17.4844 183.75 17.1719C183.073 16.849 182.49 16.3438 182 15.6562C181.51 14.9688 181.266 14.0625 181.266 12.9375C181.266 11.3542 181.875 10.1198 183.094 9.23438C184.323 8.34896 186.026 7.90625 188.203 7.90625ZM203.656 7.90625C206.021 7.90625 207.833 8.48958 209.094 9.65625C210.354 10.8229 210.984 12.5156 210.984 14.7344V25H207.016L206.469 23.0156C205.781 23.7448 205.005 24.3021 204.141 24.6875C203.286 25.0625 202.37 25.25 201.391 25.25C199.661 25.25 198.286 24.8021 197.266 23.9062C196.255 23.0104 195.75 21.8073 195.75 20.2969C195.75 18.5469 196.484 17.1823 197.953 16.2031C199.432 15.224 201.495 14.7344 204.141 14.7344H206.188V14.3125C206.125 12.375 205.026 11.4062 202.891 11.4062C202.161 11.4062 201.318 11.5156 200.359 11.7344C199.401 11.9427 198.536 12.2135 197.766 12.5469L196.75 9.3125C197.854 8.86458 199.016 8.52083 200.234 8.28125C201.453 8.03125 202.594 7.90625 203.656 7.90625ZM204.547 17.3594C203.182 17.3594 202.12 17.5938 201.359 18.0625C200.609 18.5312 200.234 19.1823 200.234 20.0156C200.234 20.7031 200.443 21.2292 200.859 21.5938C201.276 21.9479 201.865 22.125 202.625 22.125C203.312 22.125 203.969 21.974 204.594 21.6719C205.229 21.3698 205.76 20.9635 206.188 20.4531V17.3594H204.547ZM225.531 24.3594C224.083 24.9531 222.698 25.25 221.375 25.25C217.688 25.25 215.844 23.4896 215.844 19.9688V11.5938H213.078V8.23438H216.156L217.078 3.4375H220.609V8.23438H225.188V11.5938H220.609V19.2969C220.609 20.151 220.766 20.7604 221.078 21.125C221.401 21.4896 221.948 21.6719 222.719 21.6719C223.375 21.6719 224.078 21.5417 224.828 21.2812L225.531 24.3594ZM228.484 1.48438H233.281V5.85938H228.484V1.48438ZM228.484 8.42188H233.281V25H228.484V8.42188ZM245.172 7.84375C247.932 7.84375 250.047 8.59896 251.516 10.1094C252.984 11.6094 253.719 13.7656 253.719 16.5781C253.719 19.3906 252.984 21.5573 251.516 23.0781C250.047 24.599 247.932 25.3594 245.172 25.3594C242.443 25.3594 240.339 24.6042 238.859 23.0938C237.38 21.5729 236.641 19.401 236.641 16.5781C236.641 13.7656 237.375 11.6094 238.844 10.1094C240.312 8.59896 242.422 7.84375 245.172 7.84375ZM245.172 11.4375C242.703 11.4271 241.469 13.1406 241.469 16.5781C241.469 20.0156 242.703 21.7344 245.172 21.7344C247.651 21.7344 248.891 20.0156 248.891 16.5781C248.891 13.1406 247.651 11.4271 245.172 11.4375ZM261.516 10.5625C262.995 8.83333 264.938 7.96875 267.344 7.96875C269.094 7.96875 270.443 8.48438 271.391 9.51562C272.339 10.5365 272.812 11.9844 272.812 13.8594V25H268.016V14.125C268.016 13.1458 267.823 12.4375 267.438 12C267.052 11.5625 266.432 11.3438 265.578 11.3438C264.807 11.3438 264.089 11.5208 263.422 11.875C262.755 12.2188 262.219 12.6875 261.812 13.2812V25H257V8.23438H261L261.516 10.5625ZM292.297 2.3125C295.068 2.3125 297.188 2.92708 298.656 4.15625C300.125 5.375 300.859 7.15104 300.859 9.48438C300.859 11.7448 300.115 13.5052 298.625 14.7656C297.135 16.0156 295.057 16.6406 292.391 16.6406H289.344V25H284.516V2.3125H292.297ZM292.094 13.0625C293.417 13.0625 294.401 12.7708 295.047 12.1875C295.703 11.5938 296.031 10.6927 296.031 9.48438C296.031 8.26562 295.708 7.36979 295.062 6.79688C294.427 6.21354 293.438 5.92188 292.094 5.92188H289.344V13.0625H292.094ZM303.891 0.9375H308.688V25H303.891V0.9375ZM319.688 7.90625C322.052 7.90625 323.865 8.48958 325.125 9.65625C326.385 10.8229 327.016 12.5156 327.016 14.7344V25H323.047L322.5 23.0156C321.812 23.7448 321.036 24.3021 320.172 24.6875C319.318 25.0625 318.401 25.25 317.422 25.25C315.693 25.25 314.318 24.8021 313.297 23.9062C312.286 23.0104 311.781 21.8073 311.781 20.2969C311.781 18.5469 312.516 17.1823 313.984 16.2031C315.464 15.224 317.526 14.7344 320.172 14.7344H322.219V14.3125C322.156 12.375 321.057 11.4062 318.922 11.4062C318.193 11.4062 317.349 11.5156 316.391 11.7344C315.432 11.9427 314.568 12.2135 313.797 12.5469L312.781 9.3125C313.885 8.86458 315.047 8.52083 316.266 8.28125C317.484 8.03125 318.625 7.90625 319.688 7.90625ZM320.578 17.3594C319.214 17.3594 318.151 17.5938 317.391 18.0625C316.641 18.5312 316.266 19.1823 316.266 20.0156C316.266 20.7031 316.474 21.2292 316.891 21.5938C317.307 21.9479 317.896 22.125 318.656 22.125C319.344 22.125 320 21.974 320.625 21.6719C321.26 21.3698 321.792 20.9635 322.219 20.4531V17.3594H320.578ZM341.562 24.3594C340.115 24.9531 338.729 25.25 337.406 25.25C333.719 25.25 331.875 23.4896 331.875 19.9688V11.5938H329.109V8.23438H332.188L333.109 3.4375H336.641V8.23438H341.219V11.5938H336.641V19.2969C336.641 20.151 336.797 20.7604 337.109 21.125C337.432 21.4896 337.979 21.6719 338.75 21.6719C339.406 21.6719 340.109 21.5417 340.859 21.2812L341.562 24.3594ZM345.219 6.4375C345.219 4.66667 345.745 3.26562 346.797 2.23438C347.849 1.20312 349.292 0.6875 351.125 0.6875C351.917 0.6875 352.661 0.765625 353.359 0.921875C354.068 1.07812 354.88 1.34896 355.797 1.73438L354.625 4.45312C353.667 4.13021 352.865 3.96875 352.219 3.96875C351.49 3.96875 350.922 4.17708 350.516 4.59375C350.12 5.01042 349.922 5.61458 349.922 6.40625V8.23438H353.953V11.5938H349.922V23.5625C349.922 25.7604 349.365 27.8698 348.25 29.8906H345.219V11.5938H342.453V8.23438H345.219V6.4375ZM363.266 7.84375C366.026 7.84375 368.141 8.59896 369.609 10.1094C371.078 11.6094 371.812 13.7656 371.812 16.5781C371.812 19.3906 371.078 21.5573 369.609 23.0781C368.141 24.599 366.026 25.3594 363.266 25.3594C360.536 25.3594 358.432 24.6042 356.953 23.0938C355.474 21.5729 354.734 19.401 354.734 16.5781C354.734 13.7656 355.469 11.6094 356.938 10.1094C358.406 8.59896 360.516 7.84375 363.266 7.84375ZM363.266 11.4375C360.797 11.4271 359.562 13.1406 359.562 16.5781C359.562 20.0156 360.797 21.7344 363.266 21.7344C365.745 21.7344 366.984 20.0156 366.984 16.5781C366.984 13.1406 365.745 11.4271 363.266 11.4375ZM379.484 10.5625C380.536 8.83333 382.01 7.96875 383.906 7.96875C384.312 7.96875 384.656 7.99479 384.938 8.04688C385.229 8.08854 385.599 8.17188 386.047 8.29688L385.5 12.4844C384.604 12.1615 383.812 12.0052 383.125 12.0156C382.375 12.0156 381.74 12.151 381.219 12.4219C380.698 12.6823 380.26 13.099 379.906 13.6719V25H375.094V8.23438H378.906L379.484 10.5625ZM392.953 10.5625C394.349 8.83333 396.208 7.96875 398.531 7.96875C399.729 7.96875 400.755 8.21875 401.609 8.71875C402.474 9.20833 403.12 9.92188 403.547 10.8594C404.339 9.88021 405.214 9.15625 406.172 8.6875C407.13 8.20833 408.208 7.96875 409.406 7.96875C411.198 7.96875 412.578 8.48438 413.547 9.51562C414.516 10.5365 415 11.9844 415 13.8594V25H410.203V14.125C410.203 13.1458 410.01 12.4375 409.625 12C409.24 11.5625 408.62 11.3438 407.766 11.3438C406.995 11.3438 406.292 11.5156 405.656 11.8594C405.021 12.1927 404.49 12.6667 404.062 13.2812C404.062 13.3229 404.073 13.4219 404.094 13.5781C404.115 13.724 404.125 13.8958 404.125 14.0938V25H399.328V14.125C399.328 13.1458 399.135 12.4375 398.75 12C398.365 11.5625 397.745 11.3438 396.891 11.3438C396.141 11.3438 395.443 11.5208 394.797 11.875C394.151 12.2188 393.635 12.6875 393.25 13.2812V25H388.453V8.23438H392.453L392.953 10.5625Z" fill="#0C7BD4"/>
</svg>
