<svg width="88" height="25" viewBox="0 0 88 25" fill="none" xmlns="http://www.w3.org/2000/svg">
<path d="M52.1245 13.71H44.9539C45.168 14.0054 45.373 14.2996 45.5729 14.5945H52.1245V13.71Z" fill="white"/>
<path d="M47.6032 17.4942H52.1244V16.8066H47.0935C47.1886 16.9523 47.5111 17.4942 47.6032 17.4942Z" fill="white"/>
<path d="M38.4631 17.4942H42.9842V16.8066H38.4631V17.4942Z" fill="white"/>
<path d="M52.1245 2.89844H47.6035V7.40748C47.6035 7.66605 47.6103 8.19354 47.6277 8.74695H52.1245V2.89844Z" fill="white"/>
<path d="M45.711 7.01474C44.9283 5.89698 44.2961 4.7775 43.5152 3.65916C43.4605 3.582 43.0832 2.89844 42.9842 2.89844H38.4631V8.74695H46.7729C46.4417 8.15322 46.0985 7.56815 45.711 7.01474Z" fill="white"/>
<path d="M52.1244 11.8926H43.7698C43.9949 12.2755 44.227 12.6533 44.4723 13.0224H52.1244V11.8926Z" fill="white"/>
<path d="M42.6893 10.0241C42.8933 10.3662 43.0908 10.7117 43.2883 11.0572H52.1244V9.58301H47.6631C47.6913 10.0777 47.7316 10.4814 47.7876 10.5781C47.598 10.2499 47.4149 9.917 47.2319 9.58301H38.4631V11.0572H42.8835C42.8305 10.5372 42.7614 10.145 42.6893 10.0241Z" fill="white"/>
<path d="M42.9842 13.71H38.4631V14.5945H42.9842V13.71Z" fill="white"/>
<path d="M42.9486 11.8926H38.4631V13.0224H42.9836C42.9819 12.6435 42.9692 12.2577 42.9486 11.8926Z" fill="white"/>
<path d="M46.0361 15.2832C46.2279 15.5688 46.4208 15.8539 46.6196 16.1401L52.1243 16.1233V15.2832H46.0361Z" fill="white"/>
<path d="M42.9842 15.2832H38.4631V16.1637L42.9842 16.1505V15.2832Z" fill="white"/>
<path d="M58.3163 2.89844H53.7952V8.74695H58.3163V2.89844Z" fill="white"/>
<path d="M53.7952 17.4942H58.3163V16.8066H53.7952V17.4942Z" fill="white"/>
<path d="M53.7952 15.2832V16.1171L58.3163 16.1038V15.2832H53.7952Z" fill="white"/>
<path d="M53.7952 14.5945H58.3163V13.71H53.7952V14.5945Z" fill="white"/>
<path d="M53.7952 13.0224H58.3163V11.8926H53.7952V13.0224Z" fill="white"/>
<path d="M58.3163 9.58301H53.7952V11.0572H58.3163V9.58301Z" fill="white"/>
<path d="M62.0716 16.0929L68.9243 16.0728C68.9152 15.8153 68.9048 15.5464 68.895 15.2832H61.2336C61.4923 15.574 61.7721 15.8453 62.0716 16.0929Z" fill="white"/>
<path d="M64.5412 17.4077C65.2714 17.6162 66.0344 17.7361 66.794 17.751C67.0175 17.755 68.9852 17.6796 68.9794 17.5293C68.9794 17.5293 68.9685 17.2345 68.9524 16.8066H63.1084C63.5582 17.0593 64.0368 17.2633 64.5412 17.4077Z" fill="white"/>
<path d="M67.5012 6.53068C67.9157 6.52608 68.4612 6.55141 68.8319 6.67811L68.9793 2.81577C68.3891 2.66834 67.4775 2.58887 66.8417 2.58887C63.1412 2.58887 60.061 5.24074 59.394 8.74719H64.2642C64.7795 7.46186 66.0297 6.54738 67.5012 6.53068Z" fill="white"/>
<path d="M59.8299 13.0224H65.7654C65.2736 12.7362 64.8566 12.3533 64.5526 11.8926H59.4653C59.5576 12.2773 59.6802 12.6556 59.8299 13.0224Z" fill="white"/>
<path d="M60.6897 14.5945H68.8693C68.855 14.1995 68.8423 13.8747 68.8366 13.71H60.1501C60.3108 14.0163 60.4905 14.3117 60.6897 14.5945Z" fill="white"/>
<path d="M64.0432 9.58301H59.2835C59.2681 9.77764 59.2583 9.97401 59.2583 10.1727C59.2583 10.4687 59.2773 10.7641 59.3129 11.0572H64.1588C64.0667 10.7589 64.0148 10.4399 64.0108 10.103C64.0092 9.92621 64.02 9.75289 64.0432 9.58301Z" fill="white"/>
<path d="M86.0157 7.89167H81.7324V2.18599H86.0157V7.89167ZM86.0157 10.1548H81.7324V8.71056H86.0157V10.1548ZM86.0157 12.0805H81.7324V10.9737H86.0157V12.0805ZM86.0157 13.6216H81.7324V12.7549H86.0157V13.6216ZM86.0157 15.1044L81.7324 15.1074V14.2953H86.0157V15.1044ZM86.0157 16.4623V16.4888H81.7324V15.7885H86.0157V16.4623ZM80.3204 13.6216H73.3248C73.3496 13.2501 73.3714 12.934 73.3835 12.7549C73.3905 12.6547 73.3945 12.5965 73.3945 12.5965C73.5569 12.6472 73.7653 12.7059 73.9922 12.7549C74.4783 12.8597 75.0512 12.9184 75.4521 12.7549H80.4067C80.4073 13.0468 80.3792 13.3371 80.3204 13.6216ZM79.6623 15.1084L73.2234 15.1125C73.2413 14.8521 73.2603 14.5717 73.2793 14.2953H80.1161C80.0008 14.5792 79.85 14.8521 79.6623 15.1084ZM78.454 16.1514C78.2064 16.2797 77.9467 16.3817 77.68 16.4623C76.7818 16.7335 75.7993 16.752 74.8802 16.6466C74.7881 16.6362 74.2266 16.5527 73.7665 16.4623C73.4261 16.3949 73.1417 16.3236 73.1451 16.2746C73.1451 16.2746 73.1578 16.0827 73.178 15.7885H79.0109C78.8369 15.9261 78.651 16.0488 78.454 16.1514ZM72.8826 7.2663C72.5554 6.15602 72.6976 4.98297 73.2897 3.98615C73.8735 3.00372 74.8053 2.43245 75.8534 2.16238C76.9246 1.88539 78.1172 1.92397 79.1843 2.16238C79.4849 2.22918 79.7751 2.31211 80.0504 2.40828L79.8097 5.75406C79.0195 5.5099 77.5166 5.32044 77.1243 6.05122C76.784 6.68524 77.3432 7.39931 77.7837 7.89167H73.1261C73.03 7.69416 72.9471 7.48685 72.8826 7.2663ZM74.7939 10.1548C74.4 9.66707 73.9802 9.20868 73.6214 8.71056H78.5203C78.5727 8.76988 78.6262 8.82919 78.6781 8.88965C79.0231 9.29103 79.3489 9.70854 79.6287 10.1548H74.7939ZM80.0504 10.9737C80.195 11.3319 80.298 11.7045 80.3544 12.0805H75.9329C75.9335 12.0327 75.9307 11.9838 75.9249 11.9354C75.8799 11.5726 75.694 11.2622 75.4705 10.9737H80.0504ZM0.945801 0V1.5727H70.8958V17.8876H87.8983V0H0.945801Z" fill="white"/>
<path d="M81.7327 16.4885H86.016V16.4619H81.7327V16.4885Z" fill="white"/>
<path d="M10.2083 3.0918H11.045L12.5612 5.75517V3.0918H13.3047V6.91152H12.5065L10.9517 4.20149V6.91152H10.2083V3.0918Z" fill="white"/>
<path d="M14.9873 5.4684H15.9651L15.4831 3.96538L14.9873 5.4684ZM15.0396 3.0918H15.9427L17.2941 6.91152H16.4287L16.1764 6.12662H14.7702L14.5111 6.91152H13.676L15.0396 3.0918Z" fill="white"/>
<path d="M20.0582 3.0918V3.76843H18.9152V6.91152H18.1118V3.76843H16.9641V3.0918H20.0582Z" fill="white"/>
<path d="M21.1467 6.91152H20.3538V3.0918H21.1467V6.91152Z" fill="white"/>
<path d="M24.2294 5.99197C24.4149 5.75875 24.5076 5.42705 24.5076 4.99687C24.5076 4.56842 24.4149 4.23731 24.2294 4.00293C24.0434 3.76913 23.7923 3.65166 23.4767 3.65166C23.1601 3.65166 22.9078 3.76855 22.7195 4.00177C22.5311 4.23501 22.4373 4.5667 22.4373 4.99687C22.4373 5.42705 22.5311 5.75875 22.7195 5.99197C22.9078 6.22519 23.1601 6.34152 23.4767 6.34152C23.7923 6.34152 24.0434 6.22519 24.2294 5.99197ZM24.7281 6.57244C24.4397 6.8696 24.022 7.01817 23.4767 7.01817C22.9302 7.01817 22.5133 6.8696 22.2249 6.57244C21.8378 6.20793 21.6443 5.68273 21.6443 4.99687C21.6443 4.29719 21.8378 3.772 22.2249 3.4213C22.5133 3.12416 22.9302 2.97559 23.4767 2.97559C24.022 2.97559 24.4397 3.12416 24.7281 3.4213C25.1134 3.772 25.3057 4.29719 25.3057 4.99687C25.3057 5.68273 25.1134 6.20793 24.7281 6.57244Z" fill="white"/>
<path d="M25.7957 3.0918H26.6324L28.1486 5.75517V3.0918H28.8927V6.91152H28.0945L26.5395 4.20149V6.91152H25.7957V3.0918Z" fill="white"/>
<path d="M30.5749 5.4684H31.5532L31.0706 3.96538L30.5749 5.4684ZM30.6278 3.0918H31.5308L32.8823 6.91152H32.0168L31.7646 6.12662H30.3577L30.0991 6.91152H29.2642L30.6278 3.0918Z" fill="white"/>
<path d="M33.2617 3.0918H34.0599V6.22509H35.9671V6.91152H33.2617V3.0918Z" fill="white"/>
<path d="M1.73877 12.2191H0.945801V8.39941H1.73877V12.2191Z" fill="white"/>
<path d="M2.36597 8.39941H3.20269L4.71896 11.0628V8.39941H5.46298V12.2191H4.66483L3.10999 9.50911V12.2191H2.36597V8.39941Z" fill="white"/>
<path d="M6.10547 8.4043H8.82932V9.07575H6.89845V9.95396H8.59033V10.6174H6.89845V12.2188H6.10547V8.4043Z" fill="white"/>
<path d="M11.6836 11.2996C11.8696 11.0664 11.9623 10.7347 11.9623 10.3045C11.9623 9.87605 11.8696 9.54494 11.6836 9.31056C11.4982 9.07676 11.2471 8.95927 10.931 8.95927C10.6148 8.95927 10.3626 9.07618 10.1743 9.3094C9.98596 9.54262 9.8921 9.87433 9.8921 10.3045C9.8921 10.7347 9.98596 11.0664 10.1743 11.2996C10.3626 11.5328 10.6148 11.6492 10.931 11.6492C11.2471 11.6492 11.4982 11.5328 11.6836 11.2996ZM12.1829 11.8801C11.8944 12.1772 11.4769 12.3258 10.931 12.3258C10.385 12.3258 9.96812 12.1772 9.67961 11.8801C9.29261 11.5155 9.09912 10.9904 9.09912 10.3045C9.09912 9.60482 9.29261 9.07964 9.67961 8.72893C9.96812 8.43179 10.385 8.2832 10.931 8.2832C11.4769 8.2832 11.8944 8.43179 12.1829 8.72893C12.5682 9.07964 12.7605 9.60482 12.7605 10.3045C12.7605 10.9904 12.5682 11.5155 12.1829 11.8801Z" fill="white"/>
<path d="M14.0612 9.06282V10.089H14.9203C15.0909 10.089 15.2187 10.0683 15.3045 10.0268C15.4554 9.95426 15.5308 9.81086 15.5308 9.59664C15.5308 9.36515 15.4577 9.20965 15.312 9.13019C15.2297 9.08527 15.1065 9.06282 14.9423 9.06282H14.0612ZM15.7111 8.49789C15.8515 8.55835 15.9708 8.64761 16.0687 8.76509C16.1493 8.86184 16.2133 8.96894 16.2604 9.08643C16.3077 9.2039 16.3313 9.33751 16.3313 9.4878C16.3313 9.6692 16.2858 9.84771 16.1943 10.0234C16.1026 10.1984 15.9512 10.3222 15.7405 10.3948C15.9166 10.4656 16.0417 10.5664 16.1154 10.6965C16.1885 10.8273 16.2253 11.0265 16.2253 11.2943V11.5506C16.2253 11.725 16.2322 11.8437 16.246 11.9059C16.2674 12.0043 16.3163 12.0769 16.3934 12.1235V12.2191H15.5124C15.4882 12.1345 15.471 12.0665 15.4606 12.0147C15.4399 11.9076 15.4289 11.7976 15.4271 11.6853L15.4221 11.3306C15.4185 11.087 15.3765 10.9246 15.2959 10.8434C15.2147 10.7622 15.0632 10.7213 14.841 10.7213H14.0612V12.2191H13.2815V8.39941H15.1081C15.3696 8.40459 15.5705 8.43742 15.7111 8.49789Z" fill="white"/>
<path d="M19.5239 8.39941H20.6722V12.2191H19.9288V9.6358C19.9288 9.56152 19.9294 9.45728 19.931 9.32368C19.9328 9.1895 19.934 9.08643 19.934 9.01386L19.2101 12.2191H18.4343L17.7157 9.01386C17.7157 9.08643 17.7162 9.1895 17.718 9.32368C17.7197 9.45728 17.7203 9.56152 17.7203 9.6358V12.2191H16.9768V8.39941H18.1383L18.8334 11.4031L19.5239 8.39941Z" fill="white"/>
<path d="M22.3444 10.776H23.3223L22.8403 9.27301L22.3444 10.776ZM22.3969 8.39941H23.2997L24.6514 12.2191H23.7857L23.5336 11.4342H22.1272L21.8681 12.2191H21.0332L22.3969 8.39941Z" fill="white"/>
<path d="M27.4151 8.39941V9.07606H26.2726V12.2191H25.4692V9.07606H24.321V8.39941H27.4151Z" fill="white"/>
<path d="M28.5042 12.2191H27.7112V8.39941H28.5042V12.2191Z" fill="white"/>
<path d="M29.5087 8.79781C29.8163 8.48339 30.2078 8.32617 30.683 8.32617C31.3187 8.32617 31.7834 8.53694 32.0778 8.95848C32.2402 9.19515 32.3271 9.43299 32.3391 9.6714H31.5411C31.4903 9.48828 31.4246 9.35006 31.3451 9.25677C31.2029 9.09093 30.9928 9.008 30.7135 9.008C30.4289 9.008 30.2044 9.1249 30.0402 9.35928C29.8762 9.59308 29.7943 9.9242 29.7943 10.3526C29.7943 10.7811 29.8808 11.1024 30.0542 11.3155C30.2274 11.5286 30.4475 11.6357 30.7146 11.6357C30.9882 11.6357 31.1971 11.5441 31.3405 11.361C31.42 11.2625 31.4857 11.1145 31.5381 10.9176H32.3311C32.2625 11.3339 32.088 11.6725 31.807 11.9334C31.5261 12.1943 31.1656 12.325 30.7261 12.325C30.183 12.325 29.7558 12.1488 29.4448 11.7963C29.1334 11.4422 28.9778 10.9567 28.9778 10.34C28.9778 9.67312 29.1546 9.15888 29.5087 8.79781Z" fill="white"/>
<path d="M33.4454 11.0401C33.4702 11.2146 33.5191 11.3448 33.5912 11.4312C33.7236 11.5884 33.95 11.6673 34.2712 11.6673C34.4635 11.6673 34.6197 11.6465 34.7394 11.6051C34.9669 11.5256 35.0809 11.3776 35.0809 11.1617C35.0809 11.0356 35.025 10.9382 34.9139 10.8691C34.8023 10.8018 34.6255 10.7419 34.3836 10.69L33.9695 10.5996C33.5635 10.5098 33.2842 10.4119 33.1322 10.3065C32.8748 10.1303 32.7457 9.85503 32.7457 9.48013C32.7457 9.13807 32.8719 8.8536 33.1236 8.62727C33.3757 8.40096 33.7454 8.28809 34.2332 8.28809C34.6409 8.28809 34.9882 8.39463 35.2761 8.60827C35.5641 8.82134 35.7143 9.13116 35.7287 9.53714H34.9617C34.9473 9.30737 34.8448 9.14383 34.6537 9.04709C34.5258 8.98315 34.3674 8.95149 34.1779 8.95149C33.9672 8.95149 33.799 8.99294 33.6729 9.07587C33.5473 9.1588 33.4846 9.27455 33.4846 9.42312C33.4846 9.55961 33.5463 9.66154 33.6705 9.72891C33.75 9.77382 33.9194 9.82623 34.1779 9.88669L34.8482 10.0451C35.142 10.1142 35.3625 10.2063 35.5088 10.3221C35.7369 10.5017 35.8503 10.762 35.8503 11.1023C35.8503 11.4513 35.7155 11.741 35.446 11.9713C35.176 12.2023 34.7947 12.3174 34.3023 12.3174C33.7996 12.3174 33.404 12.204 33.116 11.9765C32.8276 11.7496 32.6836 11.4375 32.6836 11.0401H33.4454Z" fill="white"/>
<path d="M15.4865 14.1054C15.7941 13.791 16.1857 13.6338 16.6608 13.6338C17.2965 13.6338 17.7612 13.8446 18.055 14.2661C18.2173 14.5028 18.3048 14.7406 18.317 14.9791H17.5188C17.4675 14.7959 17.4024 14.6577 17.3231 14.5644C17.1807 14.3985 16.97 14.3156 16.6907 14.3156C16.4069 14.3156 16.1822 14.4325 16.0182 14.6669C15.854 14.9008 15.7721 15.2318 15.7721 15.6602C15.7721 16.0887 15.8586 16.41 16.032 16.6232C16.2053 16.8361 16.4253 16.9433 16.6919 16.9433C16.966 16.9433 17.1745 16.8517 17.3183 16.6687C17.3972 16.5702 17.4635 16.4222 17.5159 16.2253H18.3089C18.2403 16.6415 18.0659 16.9801 17.7849 17.2416C17.5033 17.5018 17.1433 17.6327 16.7039 17.6327C16.1604 17.6327 15.733 17.4565 15.4221 17.104C15.1111 16.7498 14.9556 16.2644 14.9556 15.6476C14.9556 14.9807 15.1323 14.4665 15.4865 14.1054Z" fill="white"/>
<path d="M21.6723 14.3837H19.6511V15.1945H21.5065V15.8578H19.6511V16.8403H21.7656V17.5267H18.8713V13.707H21.6723V14.3837Z" fill="white"/>
<path d="M22.2688 13.707H23.1055L24.6218 16.3704V13.707H25.3658V17.5267H24.5676L23.0128 14.8167V17.5267H22.2688V13.707Z" fill="white"/>
<path d="M28.7841 13.707V14.3837H27.641V17.5267H26.8377V14.3837H25.6899V13.707H28.7841Z" fill="white"/>
<path d="M29.9417 14.3704V15.3966H30.801C30.9714 15.3966 31.0992 15.3758 31.1851 15.3345C31.3359 15.2618 31.4114 15.1185 31.4114 14.9042C31.4114 14.6728 31.3383 14.5173 31.1921 14.4378C31.1102 14.3929 30.987 14.3704 30.8228 14.3704H29.9417ZM31.5916 13.8055C31.7322 13.866 31.8514 13.9552 31.9493 14.0727C32.0298 14.1694 32.0938 14.2766 32.1411 14.394C32.1882 14.5115 32.2118 14.6451 32.2118 14.7954C32.2118 14.9768 32.1664 15.1553 32.0748 15.3309C31.9833 15.5061 31.8319 15.6299 31.621 15.7024C31.7973 15.7733 31.9222 15.874 31.9959 16.0042C32.069 16.1349 32.1059 16.3342 32.1059 16.6019V16.8581C32.1059 17.0327 32.1128 17.1513 32.1267 17.2135C32.1479 17.3119 32.1968 17.3845 32.2741 17.4312V17.5267H31.393C31.3689 17.4422 31.3515 17.3741 31.3411 17.3223C31.3204 17.2152 31.3095 17.1052 31.3078 16.9929L31.3026 16.6382C31.2992 16.3945 31.257 16.2321 31.1759 16.151C31.0952 16.0698 30.9438 16.029 30.7215 16.029H29.9417V17.5267H29.1621V13.707H30.9888C31.2502 13.7122 31.4512 13.745 31.5916 13.8055Z" fill="white"/>
<path d="M35.695 14.3837H33.6738V15.1945H35.5292V15.8578H33.6738V16.8403H35.7883V17.5267H32.894V13.707H35.695V14.3837Z" fill="white"/>
<path d="M46.6692 18.9678V19.0169Z" fill="white"/>
<path d="M46.6692 18.9678V19.0169" stroke="#153389" stroke-miterlimit="10"/>
<path d="M62.7686 20.6143C62.5314 20.6143 62.342 20.7018 62.2009 20.8762C62.0598 21.0513 61.989 21.3 61.989 21.6226C61.989 21.945 62.0598 22.1944 62.2009 22.3688C62.342 22.544 62.5314 22.6315 62.7686 22.6315C63.0053 22.6315 63.1937 22.544 63.3331 22.3688C63.4723 22.1944 63.542 21.945 63.542 21.6226C63.542 21.3012 63.4723 21.0529 63.3331 20.8773C63.1937 20.7018 63.0053 20.6143 62.7686 20.6143Z" fill="white"/>
<path d="M67.3277 20.7426C67.2662 20.7086 67.1739 20.6914 67.0507 20.6914H66.3901V21.4612H67.0347C67.1625 21.4612 67.258 21.4458 67.3225 21.4147C67.4354 21.36 67.4919 21.2529 67.4919 21.0921C67.4919 20.9183 67.4372 20.8019 67.3277 20.7426Z" fill="white"/>
<path d="M70.6404 21.9762H71.374L71.0117 20.8486L70.6404 21.9762Z" fill="white"/>
<path d="M58.8003 20.6914H58.2607V21.5355H58.8003C58.9367 21.5355 59.0427 21.501 59.1187 21.4319C59.1948 21.3634 59.2327 21.2545 59.2327 21.1061C59.2327 20.9569 59.1948 20.8504 59.1187 20.7869C59.0427 20.7236 58.9367 20.6914 58.8003 20.6914Z" fill="white"/>
<path d="M55.12 20.7426C55.0585 20.7086 54.9663 20.6914 54.843 20.6914H54.1826V21.4612H54.827C54.9548 21.4612 55.0503 21.4458 55.1149 21.4147C55.2277 21.36 55.2842 21.2529 55.2842 21.0921C55.2842 20.9183 55.2295 20.8019 55.12 20.7426Z" fill="white"/>
<path d="M50.5609 20.6143C50.3237 20.6143 50.1342 20.7018 49.9932 20.8762C49.852 21.0513 49.7812 21.3 49.7812 21.6226C49.7812 21.945 49.852 22.1944 49.9932 22.3688C50.1342 22.544 50.3237 22.6315 50.5609 22.6315C50.7976 22.6315 50.9859 22.544 51.1253 22.3688C51.2646 22.1944 51.3343 21.945 51.3343 21.6226C51.3343 21.3012 51.2646 21.0529 51.1253 20.8773C50.9859 20.7018 50.7976 20.6143 50.5609 20.6143Z" fill="white"/>
<path d="M82.2439 20.6914H81.6904V22.5618H82.2439C82.5266 22.5618 82.7241 22.4218 82.8353 22.1437C82.8963 21.9905 82.9268 21.8086 82.9268 21.5978C82.9268 21.3058 82.8813 21.0819 82.7898 20.9263C82.6981 20.7697 82.5162 20.6914 82.2439 20.6914Z" fill="white"/>
<path d="M14.6744 20.7426C14.6128 20.7086 14.5207 20.6914 14.3975 20.6914H13.7363V21.4612H14.3807C14.5086 21.4612 14.6048 21.4458 14.6687 21.4147C14.782 21.36 14.8385 21.2529 14.8385 21.0921C14.8385 20.9183 14.7838 20.8019 14.6744 20.7426Z" fill="white"/>
<path d="M83.3058 22.5235C83.0984 22.88 82.7783 23.058 82.3446 23.058H81.11V20.193H82.3446C82.5226 20.1958 82.67 20.2166 82.788 20.2552C82.9896 20.3215 83.152 20.4429 83.2764 20.6191C83.3765 20.7613 83.444 20.9157 83.4808 21.0815C83.5171 21.2473 83.5355 21.4051 83.5355 21.5561C83.5355 21.9366 83.4584 22.2592 83.3058 22.5235ZM79.4491 23.058H77.2781V20.193H79.3788V20.7008H77.8632V21.309H79.2546V21.8066H77.8632V22.543H79.4491V23.058ZM75.7164 20.7008H74.86V23.058H74.2572V20.7008H73.3961V20.193H75.7164V20.7008ZM71.7211 23.058L71.5321 22.4693H70.4771L70.2831 23.058H69.6565L70.6792 20.193H71.3565L72.37 23.058H71.7211ZM68.1391 23.058H67.4786C67.4602 22.9946 67.4476 22.9433 67.4394 22.9048C67.4238 22.8241 67.4158 22.7418 67.414 22.6577L67.4106 22.3916C67.4078 22.2085 67.3761 22.087 67.3156 22.0259C67.2552 21.9655 67.1418 21.935 66.9748 21.935H66.3902V23.058H65.8051V20.193H67.1751C67.3709 20.1976 67.5219 20.2218 67.6272 20.2672C67.7326 20.3121 67.8223 20.379 67.8956 20.4677C67.9559 20.5402 68.0043 20.6203 68.0394 20.7084C68.0752 20.7965 68.0925 20.8973 68.0925 21.0096C68.0925 21.1454 68.058 21.2796 67.9895 21.4109C67.9208 21.5427 67.8073 21.6356 67.6497 21.6902C67.7815 21.7427 67.8754 21.8186 67.9301 21.9166C67.9853 22.0145 68.013 22.1635 68.013 22.3646V22.5568C68.013 22.6876 68.0182 22.7763 68.0286 22.8229C68.0446 22.8966 68.0816 22.9513 68.1391 22.9865V23.058ZM63.7072 22.8033C63.4907 23.0262 63.1781 23.1379 62.7686 23.1379C62.3591 23.1379 62.0459 23.0262 61.83 22.8033C61.5398 22.5304 61.3946 22.136 61.3946 21.6216C61.3946 21.0971 61.5398 20.7032 61.83 20.44C62.0459 20.2172 62.3591 20.106 62.7686 20.106C63.1781 20.106 63.4907 20.2172 63.7072 20.44C63.9964 20.7032 64.1402 21.0971 64.1402 21.6216C64.1402 22.136 63.9964 22.5304 63.7072 22.8033ZM59.5753 21.8181C59.4079 21.958 59.1682 22.0283 58.8572 22.0283H58.2608V23.058H57.6658V20.193H58.8958C59.1798 20.193 59.4055 20.2672 59.5743 20.4147C59.7429 20.5626 59.827 20.7913 59.827 21.1011C59.827 21.4391 59.7435 21.6781 59.5753 21.8181ZM55.9314 23.058H55.2708C55.2524 22.9946 55.2397 22.9433 55.2317 22.9048C55.2161 22.8241 55.2075 22.7418 55.2063 22.6577L55.2029 22.3916C55.1999 22.2085 55.1689 22.087 55.1078 22.0259C55.0473 21.9655 54.9339 21.935 54.7669 21.935H54.1824V23.058H53.5974V20.193H54.9672C55.1637 20.1976 55.314 20.2218 55.4194 20.2672C55.5253 20.3121 55.6146 20.379 55.6877 20.4677C55.7482 20.5402 55.7966 20.6203 55.8317 20.7084C55.8674 20.7965 55.8847 20.8973 55.8847 21.0096C55.8847 21.1454 55.8507 21.2796 55.7816 21.4109C55.7131 21.5427 55.5996 21.6356 55.4418 21.6902C55.5737 21.7427 55.6675 21.8186 55.7223 21.9166C55.7776 22.0145 55.8052 22.1635 55.8052 22.3646V22.5568C55.8052 22.6876 55.8103 22.7763 55.8207 22.8229C55.8369 22.8966 55.8737 22.9513 55.9314 22.9865V23.058ZM51.4995 22.8033C51.2829 23.0262 50.9702 23.1379 50.5607 23.1379C50.1514 23.1379 49.838 23.0262 49.6221 22.8033C49.3319 22.5304 49.1867 22.136 49.1867 21.6216C49.1867 21.0971 49.3319 20.7032 49.6221 20.44C49.838 20.2172 50.1514 20.106 50.5607 20.106C50.9702 20.106 51.2829 20.2172 51.4995 20.44C51.7885 20.7032 51.9325 21.0971 51.9325 21.6216C51.9325 22.136 51.7885 22.5304 51.4995 22.8033ZM45.9073 22.3807C46.0373 22.5408 46.2027 22.6208 46.403 22.6208C46.608 22.6208 46.7646 22.5522 46.8724 22.4146C46.9322 22.3409 46.9811 22.2304 47.0204 22.0824H47.6153C47.564 22.3944 47.4327 22.6491 47.222 22.8442C47.0111 23.04 46.741 23.1379 46.4116 23.1379C46.0039 23.1379 45.6838 23.0055 45.4505 22.7412C45.2173 22.4757 45.1003 22.1118 45.1003 21.6488C45.1003 21.1488 45.2329 20.7637 45.4984 20.493C45.7293 20.2569 46.0229 20.1389 46.3795 20.1389C46.8562 20.1389 47.2046 20.2971 47.4251 20.6127C47.5467 20.7907 47.6123 20.9687 47.621 21.1478H47.0226C46.9847 21.0102 46.9357 20.9065 46.8758 20.8368C46.7692 20.7124 46.6115 20.6502 46.4018 20.6502C46.1887 20.6502 46.0207 20.7377 45.8975 20.9133C45.7742 21.0891 45.7125 21.3372 45.7125 21.6592C45.7125 21.9799 45.7776 22.2206 45.9073 22.3807ZM43.469 23.058H42.8706L41.7045 21.0256V23.058H41.1466V20.193H41.7742L42.9109 22.1907V20.193H43.469V23.058ZM39.4022 23.058H38.8074V20.193H39.4022V23.058ZM33.1351 22.8724C32.9324 23.0452 32.6467 23.1317 32.2776 23.1317C31.9003 23.1317 31.6039 23.047 31.3873 22.8766C31.1714 22.706 31.0636 22.4717 31.0636 22.1739H31.6348C31.6534 22.3047 31.6896 22.4026 31.7437 22.4671C31.8428 22.5852 32.0133 22.6439 32.254 22.6439C32.3979 22.6439 32.5155 22.6289 32.6052 22.5972C32.7757 22.5379 32.8609 22.4274 32.8609 22.265C32.8609 22.1705 32.8195 22.0974 32.736 22.0455C32.6519 21.9949 32.5195 21.95 32.3381 21.9114L32.0277 21.8433C31.7229 21.776 31.5134 21.7029 31.3993 21.624C31.2064 21.4916 31.1097 21.2848 31.1097 21.0038C31.1097 20.7469 31.2048 20.5344 31.3931 20.3646C31.5819 20.1947 31.8595 20.1095 32.2257 20.1095C32.5309 20.1095 32.7918 20.1901 33.0078 20.3502C33.2232 20.5097 33.3366 20.7418 33.347 21.0464H32.7717C32.7614 20.8742 32.6841 20.7515 32.5407 20.679C32.4452 20.6313 32.3259 20.6069 32.1843 20.6069C32.0259 20.6069 31.8999 20.6387 31.8054 20.7008C31.7109 20.7631 31.6638 20.8494 31.6638 20.9612C31.6638 21.0637 31.7103 21.1397 31.8036 21.1904C31.8629 21.2243 31.9902 21.2635 32.1843 21.309L32.6871 21.4277C32.907 21.4794 33.0722 21.5485 33.1822 21.6356C33.3526 21.7702 33.4385 21.9655 33.4385 22.2206C33.4385 22.4821 33.3372 22.6992 33.1351 22.8724ZM29.5427 23.058H27.3717V20.193H29.4726V20.7008H27.9568V21.309H29.3482V21.8066H27.9568V22.543H29.5427V23.058ZM23.9685 22.3807C24.0985 22.5408 24.2633 22.6208 24.4636 22.6208C24.6686 22.6208 24.8252 22.5522 24.933 22.4146C24.9928 22.3409 25.0423 22.2304 25.0815 22.0824H25.6765C25.6246 22.3944 25.4939 22.6491 25.283 22.8442C25.0723 23.04 24.8016 23.1379 24.4728 23.1379C24.0652 23.1379 23.7444 23.0055 23.5111 22.7412C23.278 22.4757 23.1609 22.1118 23.1609 21.6488C23.1609 21.1488 23.294 20.7637 23.5596 20.493C23.7899 20.2569 24.0835 20.1389 24.4401 20.1389C24.9169 20.1389 25.2652 20.2971 25.4858 20.6127C25.608 20.7907 25.6729 20.9687 25.6821 21.1478H25.0833C25.0453 21.0102 24.9963 20.9065 24.937 20.8368C24.8304 20.7124 24.6722 20.6502 24.4625 20.6502C24.2493 20.6502 24.0813 20.7377 23.9581 20.9133C23.8348 21.0891 23.7737 21.3372 23.7737 21.6592C23.7737 21.9799 23.8382 22.2206 23.9685 22.3807ZM21.5318 23.058H20.937V20.193H21.5318V23.058ZM18.458 23.058H17.8925L16.9238 20.193H17.5629L18.1849 22.368L18.8127 20.193H19.4345L18.458 23.058ZM15.4858 23.058H14.8248C14.8069 22.9946 14.7937 22.9433 14.7861 22.9048C14.7707 22.8241 14.7619 22.7418 14.7609 22.6577L14.7568 22.3916C14.7545 22.2085 14.7228 22.087 14.6624 22.0259C14.6019 21.9655 14.4879 21.935 14.3215 21.935H13.7364V23.058H13.1519V20.193H14.5218C14.7176 20.1976 14.8686 20.2218 14.9739 20.2672C15.0793 20.3121 15.1686 20.379 15.2423 20.4677C15.3028 20.5402 15.3506 20.6203 15.3863 20.7084C15.4213 20.7965 15.4392 20.8973 15.4392 21.0096C15.4392 21.1454 15.4047 21.2796 15.3362 21.4109C15.2677 21.5427 15.1542 21.6356 14.9958 21.6902C15.1283 21.7427 15.2215 21.8186 15.2769 21.9166C15.3322 22.0145 15.3598 22.1635 15.3598 22.3646V22.5568C15.3598 22.6876 15.3649 22.7763 15.3753 22.8229C15.3909 22.8966 15.4277 22.9513 15.4858 22.9865V23.058ZM11.4773 23.058H9.30624V20.193H11.4076V20.7008H9.89132V21.309H11.2832V21.8066H9.89132V22.543H11.4773V23.058ZM7.37133 22.8724C7.16919 23.0452 6.88357 23.1317 6.51387 23.1317C6.13667 23.1317 5.8401 23.047 5.62415 22.8766C5.40819 22.706 5.29993 22.4717 5.29993 22.1739H5.87119C5.88961 22.3047 5.92648 22.4026 5.98061 22.4671C6.07965 22.5852 6.24953 22.6439 6.49024 22.6439C6.63479 22.6439 6.75169 22.6289 6.84153 22.5972C7.01257 22.5379 7.09778 22.4274 7.09778 22.265C7.09778 22.1705 7.05575 22.0974 6.97224 22.0455C6.88875 21.9949 6.7563 21.95 6.57491 21.9114L6.26451 21.8433C5.95988 21.776 5.75025 21.7029 5.63624 21.624C5.44332 21.4916 5.34657 21.2848 5.34657 21.0038C5.34657 20.7469 5.44103 20.5344 5.62991 20.3646C5.81878 20.1947 6.09635 20.1095 6.46203 20.1095C6.76782 20.1095 7.02869 20.1901 7.24405 20.3502C7.46001 20.5097 7.57289 20.7418 7.58382 21.0464H7.00853C6.99759 20.8742 6.92043 20.7515 6.77703 20.679C6.68143 20.6313 6.56281 20.6069 6.42057 20.6069C6.26221 20.6069 6.13609 20.6387 6.04222 20.7008C5.94778 20.7631 5.90056 20.8494 5.90056 20.9612C5.90056 21.0637 5.9472 21.1397 6.03992 21.1904C6.0998 21.2243 6.2265 21.2635 6.42057 21.309L6.9233 21.4277C7.14386 21.4794 7.30855 21.5485 7.41855 21.6356C7.58958 21.7702 7.67481 21.9655 7.67481 22.2206C7.67481 22.4821 7.57403 22.6992 7.37133 22.8724ZM0.945801 24.2263H87.8983V19.0176H0.945801V24.2263Z" fill="white"/>
</svg>
